<?xml version="1.0" encoding="UTF-8" standalone="no"?>
<svg
   xmlns:svg="http://www.w3.org/2000/svg"
   xmlns="http://www.w3.org/2000/svg"
   xmlns:xlink="http://www.w3.org/1999/xlink"
   version="1.1"
   width="560"
   height="386">
  <defs>
    <marker
       refX="0"
       refY="0"
       orient="auto"
       id="Arrow2Lend"
       style="overflow:visible">
      <path
         d="M 8.7185878,4.0337352 -2.2072895,0.01601326 8.7185884,-4.0017078 c -1.7454984,2.3720609 -1.7354408,5.6174519 -6e-7,8.035443 z"
         transform="matrix(-1.1,0,0,-1.1,-1.1,0)" />
    </marker>
  </defs>
  <use
     transform="translate(360,77)"
     xlink:href="#path2922" />
  <text
     x="461.34183"
     y="121.3304"
     style="font-size:14px;text-anchor:middle;font-family:Liberation Sans">
    <tspan>Synthesis</tspan>
    <tspan
       x="461.34183"
       y="138.93195">filter 1/A(z)</tspan>
  </text>
  <rect
     width="113"
     height="55"
     x="404.5"
     y="151"
     style="fill:#FFF;stroke:#000" />
  <path
     d="m 414.38712,195.74557 c 11.20701,-16.9707 11.00367,-56.86725 21.29032,-26.45162 4.45212,13.16404 1.7354,26.13604 14.67742,15.48387 7.68179,-6.32264 6.34221,-18.50653 17.58064,1.93549 3.63801,6.61731 10.23909,9.17084 21.29033,7.74193 16.44438,-2.12624 18.38709,4.35484 18.38709,4.35484"
     id="path2878"
     style="fill:none;stroke:#000" />
  <path
     d="m 228.5,341.5 -170,0 0,-61.17198"
     id="path6383"
     style="fill:none;stroke:#000;marker-end:url(#Arrow2Lend)" />
  <text
     x="209.24025"
     y="385"
     style="font-size:14px;text-anchor:middle;font-family:Liberation Sans">
    <tspan>Past subframe</tspan>
  </text>
  <rect
     width="113"
     height="45"
     x="153"
     y="319"
     style="fill:#FFF;stroke:#000" />
  <text
     x="208.53908"
     y="347.68774"
     style="font-size:24px;text-anchor:middle;font-family:Liberation Sans">
    <tspan>Delay</tspan>
  </text>
  <path
     d="m 347.5,179 0,162.5 -79.67197,0"
     id="path4869"
     style="fill:none;stroke:#000;marker-end:url(#Arrow2Lend)" />
  <text
     x="345.5"
     y="151.33038"
     style="font-size:14px;text-anchor:middle;font-family:Liberation Sans">
    <tspan>Excitation</tspan>
    <tspan
       x="345.5"
       y="168.92511">e[n]</tspan>
  </text>
  <use
     transform="translate(204,77)"
     xlink:href="#path2922" />
  <path
     d="m 290.5,179 a 9.5,9.5 0 0 1 -19,0 9.5,9.5 0 1 1 19,0 z"
     id="path4725"
     style="fill:#FFF;stroke:#000" />
  <text
     x="281"
     y="186.79324"
     style="font-size:24px;text-anchor:middle;font-family:Liberation Sans">
    <tspan>+</tspan>
  </text>
  <use
     transform="translate(0,154.5)"
     xlink:href="#path2922" />
  <path
     d="m 210,256 71,0 0,-65.67198"
     style="fill:none;stroke:#000;marker-end:url(#Arrow2Lend)" />
  <text
     x="202.5"
     y="289.51788"
     style="font-size:14px;text-anchor:middle;font-family:Liberation Sans">
    <tspan>Adaptive codebook gain</tspan>
  </text>
  <use
     transform="translate(0,154.5)"
     xlink:href="#path5396" />
  <text
     x="59.554688"
     y="222"
     style="font-size:14px;text-anchor:middle;font-family:Liberation Sans">
    <tspan>Adaptive codebook</tspan>
  </text>
  <rect
     width="113"
     height="45"
     x="2.5"
     y="233.5"
     style="fill:#FFF;stroke:#000" />
  <text
     x="59.339844"
     y="262.20535"
     style="font-size:24px;text-anchor:middle;font-family:Liberation Sans">
    <tspan>e[n-T]</tspan>
  </text>
  <path
     d="m 83.672,101.5 115,0"
     id="path2922"
     style="stroke:#000;marker-end:url(#Arrow2Lend)" />
  <path
     d="m 210,101.5 71,0 0,66.17198"
     style="fill:none;stroke:#000;marker-end:url(#Arrow2Lend)" />
  <text
     x="205"
     y="135"
     style="font-size:14px;text-anchor:middle;font-family:Liberation Sans">
    <tspan>Fixed codebook gain</tspan>
  </text>
  <path
     d="m 200.5,82.625281 0,38 19,-19 -19,-19 z"
     id="path5396"
     style="fill:#FFF;stroke:#000" />
  <text
     x="58.415527"
     y="11"
     style="font-size:14px;text-anchor:middle;font-family:Liberation Sans">
    <tspan>Fixed codebook</tspan>
  </text>
  <rect
     width="113"
     height="150"
     x="2.5"
     y="25.5"
     style="fill:#FFF;stroke:#000" />
  <path
     d="m 17,48.5 87,0"
     id="path4743"
     style="stroke:#000" />
  <use
     transform="translate(0,39)"
     xlink:href="#path4743" />
  <use
     transform="translate(0,75)"
     xlink:href="#path4743" />
  <path
     d="m 29.5,48.5 0,-13.5"
     id="path4749"
     style="stroke:#000" />
  <use
     transform="translate(58,0)"
     xlink:href="#path4749" />
  <use
     transform="translate(62,88.5)"
     xlink:href="#path4749" />
  <use
     transform="translate(22.5,88.5)"
     xlink:href="#path4749" />
  <path
     d="m 41.5,64 0,-15.5"
     id="path4757"
     style="stroke:#000" />
  <use
     transform="translate(-13,39)"
     xlink:href="#path4757" />
  <use
     transform="translate(1,75)"
     xlink:href="#path4757" />
  <path
     d="m 77.5,59 0,-10.5"
     id="path4763"
     style="stroke:#000" />
  <use
     transform="translate(-26.5,-10.5)"
     xlink:href="#path4763" />
  <path
     d="m 65.5,48.5 0,-4.473252"
     id="path4767"
     style="stroke:#000" />
  <path
     d="m 88.5,87.5 0,-3.5"
     id="path4769"
     style="stroke:#000" />
  <use
     transform="translate(-22,36)"
     xlink:href="#path4769" />
  <path
     d="m 30.5,123.5 0,-7.5"
     id="path4773"
     style="stroke:#000" />
  <path
     d="m 39.5,87.5 0,-12.5"
     id="path4775"
     style="stroke:#000" />
  <path
     d="m 51.5,87.5 0,-9.5"
     id="path4779"
     style="stroke:#000" />
  <path
     d="m 63.5,99 0,-11.5"
     id="path4781"
     style="stroke:#000" />
  <use
     transform="translate(38,0)"
     xlink:href="#path4775" />
  <path
     d="m 78.5,123.5 0,-11.5"
     id="path4787"
     style="stroke:#000" />
</svg>