<?xml version="1.0" encoding="UTF-8" standalone="no"?>
<!-- Created with Inkscape (http://www.inkscape.org/) -->
<svg
   xmlns:dc="http://purl.org/dc/elements/1.1/"
   xmlns:cc="http://creativecommons.org/ns#"
   xmlns:rdf="http://www.w3.org/1999/02/22-rdf-syntax-ns#"
   xmlns:svg="http://www.w3.org/2000/svg"
   xmlns="http://www.w3.org/2000/svg"
   xmlns:sodipodi="http://sodipodi.sourceforge.net/DTD/sodipodi-0.dtd"
   xmlns:inkscape="http://www.inkscape.org/namespaces/inkscape"
   width="400"
   height="250"
   id="svg2"
   sodipodi:version="0.32"
   inkscape:version="0.46"
   version="1.0"
   sodipodi:docname="Ionosphere Layers en.svg"
   inkscape:output_extension="org.inkscape.output.svg.inkscape">
  <defs
     id="defs4">
    <linearGradient
       id="linearGradient4746">
      <stop
         style="stop-color:#000000;stop-opacity:0.64492756;"
         offset="0"
         id="stop4748" />
      <stop
         style="stop-color:#61b5ff;stop-opacity:0.23913044;"
         offset="1"
         id="stop4750" />
    </linearGradient>
    <inkscape:perspective
       sodipodi:type="inkscape:persp3d"
       inkscape:vp_x="0 : 526.18109 : 1"
       inkscape:vp_y="0 : 1000 : 0"
       inkscape:vp_z="744.09448 : 526.18109 : 1"
       inkscape:persp3d-origin="372.04724 : 350.78739 : 1"
       id="perspective10" />
    <inkscape:perspective
       id="perspective2390"
       inkscape:persp3d-origin="372.04724 : 350.78739 : 1"
       inkscape:vp_z="744.09448 : 526.18109 : 1"
       inkscape:vp_y="0 : 1000 : 0"
       inkscape:vp_x="0 : 526.18109 : 1"
       sodipodi:type="inkscape:persp3d" />
    <inkscape:perspective
       id="perspective2405"
       inkscape:persp3d-origin="372.04724 : 350.78739 : 1"
       inkscape:vp_z="744.09448 : 526.18109 : 1"
       inkscape:vp_y="0 : 1000 : 0"
       inkscape:vp_x="0 : 526.18109 : 1"
       sodipodi:type="inkscape:persp3d" />
  </defs>
  <sodipodi:namedview
     id="base"
     pagecolor="#ffffff"
     bordercolor="#666666"
     borderopacity="1.0"
     inkscape:pageopacity="0.0"
     inkscape:pageshadow="2"
     inkscape:zoom="0.98994949"
     inkscape:cx="195.84945"
     inkscape:cy="117.54896"
     inkscape:document-units="px"
     inkscape:current-layer="layer1"
     showgrid="false"
     inkscape:window-width="1024"
     inkscape:window-height="712"
     inkscape:window-x="-4"
     inkscape:window-y="-4" />
  <metadata
     id="metadata7">
    <rdf:RDF>
      <cc:Work
         rdf:about="">
        <dc:format>image/svg+xml</dc:format>
        <dc:type
           rdf:resource="http://purl.org/dc/dcmitype/StillImage" />
      </cc:Work>
    </rdf:RDF>
  </metadata>
  <g
     inkscape:label="Capa 1"
     inkscape:groupmode="layer"
     id="layer1"
     transform="translate(-150,-382.36218)">
    <path
       style="fill:#31f999;fill-opacity:0.50753766;stroke:none;stroke-width:1;stroke-miterlimit:4;stroke-dasharray:none;stroke-dashoffset:0;stroke-opacity:1"
       d="M 372.96875 94.3125 C 367.60224 92.710084 362.26947 91.114815 356.65625 89.6875 C 348.93417 87.72395 340.96195 85.926172 332.8125 84.3125 C 324.66305 82.698828 316.31231 81.273628 307.78125 80.03125 C 299.25019 78.788872 290.55439 77.724668 281.6875 76.875 C 272.82061 76.025332 263.78196 75.373042 254.625 74.9375 C 245.46804 74.501958 236.1825 74.28125 226.78125 74.28125 C 226.16936 74.28125 225.57969 74.310613 224.96875 74.3125 L 224.96875 90.5625 C 227.745 90.64274 230.59162 90.60743 233.34375 90.71875 C 243.0689 91.11213 252.64541 91.70133 262.0625 92.46875 C 271.4796 93.23617 280.72084 94.19039 289.78125 95.3125 C 298.84167 96.43461 307.71987 97.73004 316.375 99.1875 C 325.03014 100.64496 333.45502 102.25778 341.65625 104.03125 C 349.85749 105.80472 357.83253 107.71112 365.53125 109.78125 C 368.10081 110.47218 370.45879 111.27746 372.96875 112 L 372.96875 94.3125 z "
       id="path2414"
       transform="translate(150,382.36218)" />
    <path
       style="fill:#2ae9d0;fill-opacity:1;stroke:none;stroke-width:1;stroke-miterlimit:4;stroke-dasharray:none;stroke-dashoffset:0;stroke-opacity:1"
       d="M 374.9586,500.13495 C 367.43353,499.95036 359.90807,499.75995 352.23985,499.75995 C 341.92417,499.75995 331.72497,499.92351 321.67735,500.25995 C 311.62973,500.59639 301.7192,501.10361 291.98985,501.75995 C 282.2605,502.41629 272.7257,503.2065 263.36485,504.1662 C 254.004,505.1259 244.83822,506.23219 235.8961,507.4787 C 226.95398,508.72521 218.21302,510.11817 209.73985,511.63495 C 206.98085,512.12884 204.41435,512.70732 201.7086,513.2287 L 201.7086,528.6662 C 205.88959,527.77491 209.95356,526.82785 214.2711,526.00995 C 222.44456,524.46159 230.86403,523.03241 239.48985,521.75995 C 248.11567,520.48749 256.96012,519.36463 265.98985,518.38495 C 275.01958,517.40527 284.22965,516.58621 293.61485,515.9162 C 303.00005,515.24619 312.54764,514.7284 322.23985,514.38495 C 331.93206,514.0415 341.78906,513.8537 351.73985,513.8537 C 359.58011,513.8537 367.27774,514.04251 374.9586,514.25995 L 374.9586,500.13495 z"
       id="path3237" />
    <path
       style="fill:#2ae9d0;fill-opacity:1;stroke:none;stroke-width:1;stroke-miterlimit:4;stroke-dasharray:none;stroke-dashoffset:0;stroke-opacity:1"
       d="M 374.9586,500.13495 L 374.9586,514.25995 C 377.02622,514.31848 379.15292,514.31211 381.2086,514.38495 C 390.90081,514.7284 400.4484,515.24619 409.8336,515.9162 C 419.2188,516.58621 428.42887,517.40527 437.4586,518.38495 C 446.48833,519.36463 455.33278,520.48749 463.9586,521.75995 C 472.58442,523.03241 481.00389,524.46159 489.17735,526.00995 C 497.35081,527.55831 505.28595,529.23383 512.9586,531.0412 C 516.41114,531.85448 519.61458,532.77171 522.9586,533.63495 L 522.9586,517.44745 C 521.7318,517.16547 520.60497,516.84849 519.36485,516.57245 C 511.41085,514.80194 503.18178,513.15173 494.7086,511.63495 C 486.23542,510.11817 477.52572,508.72521 468.5836,507.4787 C 459.64148,506.23219 450.4757,505.1259 441.11485,504.1662 C 431.754,503.2065 422.18795,502.41629 412.4586,501.75995 C 402.72925,501.10361 392.84997,500.59639 382.80235,500.25995 C 380.22368,500.1736 377.55664,500.19868 374.9586,500.13495 z"
       id="path3219" />
    <path
       style="fill:#31f999;fill-opacity:1;stroke:none;stroke-width:1;stroke-miterlimit:4;stroke-dasharray:none;stroke-dashoffset:0;stroke-opacity:1"
       d="M 374.9586,436.5412 C 373.08738,436.52711 371.27419,436.38495 369.3961,436.38495 C 356.89395,436.38495 344.54213,436.69705 332.36485,437.32245 C 320.18757,437.94785 308.18764,438.88365 296.3961,440.1037 C 284.60456,441.32375 273.02228,442.81975 261.67735,444.6037 C 250.33242,446.38765 239.23356,448.44286 228.3961,450.75995 C 219.26876,452.71141 210.43622,454.95041 201.7086,457.25995 L 201.7086,489.7912 C 206.38855,488.63666 210.98122,487.43425 215.8336,486.38495 C 224.03483,484.61148 232.49097,482.99866 241.1461,481.5412 C 249.80123,480.08374 258.64819,478.78831 267.7086,477.6662 C 276.76901,476.54409 286.04151,475.58987 295.4586,474.82245 C 304.87569,474.05503 314.4522,473.46583 324.17735,473.07245 C 333.9025,472.67907 343.75525,472.4787 353.73985,472.4787 C 360.8989,472.4787 367.92446,472.71289 374.9586,472.9162 L 374.9586,436.5412 z"
       id="path3232" />
    <path
       style="fill:#22da81;fill-opacity:1;stroke:none;stroke-width:1;stroke-miterlimit:4;stroke-dasharray:none;stroke-dashoffset:0;stroke-opacity:1"
       d="M 224.96875 54.1875 L 224.96875 68.71875 C 231.45819 68.790863 237.94874 68.839384 244.3125 69.09375 C 253.13342 69.446332 261.8335 69.968423 270.375 70.65625 C 278.9165 71.344077 287.31326 72.213015 295.53125 73.21875 C 303.74924 74.224485 311.80586 75.381194 319.65625 76.6875 C 327.50664 77.993806 335.15505 79.44171 342.59375 81.03125 C 350.03245 82.62079 357.23584 84.363312 364.21875 86.21875 C 367.24006 87.021547 370.03868 87.931001 372.96875 88.78125 L 372.96875 71.46875 C 368.76436 70.471196 364.7281 69.3236 360.4375 68.40625 C 349.60005 66.089156 338.46993 64.03395 327.125 62.25 C 315.78008 60.46605 304.19779 58.97005 292.40625 57.75 C 280.61472 56.52995 268.61478 55.59415 256.4375 54.96875 C 246.08952 54.4373 235.55396 54.26721 224.96875 54.1875 z "
       id="path2431"
       transform="translate(150,382.36218)" />
    <path
       style="fill:#ffaa48;fill-opacity:1;stroke:none;stroke-width:1;stroke-miterlimit:4;stroke-dasharray:none;stroke-dashoffset:0;stroke-opacity:1"
       d="M 375.20821,519.86923 L 375.20821,533.99423 C 377.27583,534.05276 379.40253,534.04639 381.45821,534.11923 C 391.15042,534.46268 400.69801,534.98047 410.08321,535.65048 C 419.46841,536.32049 428.67848,537.13955 437.70821,538.11923 C 446.73794,539.09891 455.58239,540.22177 464.20821,541.49423 C 472.83403,542.76669 481.2535,544.19587 489.42696,545.74423 C 497.60042,547.29259 505.53556,548.96811 513.20821,550.77548 C 516.66075,551.58876 519.86419,552.50599 523.20821,553.36923 L 523.20821,537.18173 C 521.98141,536.89975 520.85458,536.58277 519.61446,536.30673 C 511.66046,534.53622 503.43139,532.88601 494.95821,531.36923 C 486.48503,529.85245 477.77533,528.45949 468.83321,527.21298 C 459.89109,525.96647 450.72531,524.86018 441.36446,523.90048 C 432.00361,522.94078 422.43756,522.15057 412.70821,521.49423 C 402.97886,520.83789 393.09958,520.33067 383.05196,519.99423 C 380.47329,519.90788 377.80625,519.93296 375.20821,519.86923 z"
       id="path3242" />
    <path
       transform="scale(0.9952054,1.0048177)"
       style="font-size:16.52783585px;font-style:normal;font-weight:normal;text-align:end;text-anchor:end;fill:#000000;fill-opacity:1;stroke:none;stroke-width:1px;stroke-linecap:butt;stroke-linejoin:miter;stroke-opacity:1;font-family:Bitstream Vera Sans"
       d="M 177.75671,447.11014 L 178.72351,446.98123 C 178.83451,447.52908 179.0234,447.92386 179.29016,448.16556 C 179.55692,448.40726 179.88187,448.52811 180.26501,448.52811 C 180.71976,448.52811 181.1038,448.37056 181.41711,448.05545 C 181.73042,447.74035 181.88708,447.35005 181.88708,446.88455 C 181.88708,446.44054 181.74206,446.07442 181.45203,445.78616 C 181.16198,445.49792 180.79317,445.35379 180.34558,445.35379 C 180.16296,445.35379 179.93558,445.3896 179.66345,445.46121 L 179.77087,444.61258 C 179.83532,444.61975 179.88725,444.62333 179.92664,444.62332 C 180.33842,444.62333 180.70902,444.5159 181.03845,444.30106 C 181.36788,444.08622 181.53259,443.755 181.53259,443.3074 C 181.53259,442.95292 181.41263,442.6593 181.17273,442.42654 C 180.93282,442.1938 180.62308,442.07743 180.24353,442.07742 C 179.86755,442.07743 179.55424,442.19559 179.30359,442.43192 C 179.05294,442.66825 178.8918,443.02274 178.82019,443.49539 L 177.85339,443.32352 C 177.97156,442.67541 178.24011,442.17321 178.65906,441.81693 C 179.078,441.46065 179.599,441.28251 180.22205,441.2825 C 180.65173,441.28251 181.0474,441.37471 181.40906,441.55911 C 181.77071,441.74353 182.04732,441.99507 182.23889,442.31375 C 182.43046,442.63244 182.52624,442.97082 182.52625,443.32889 C 182.52624,443.66906 182.43493,443.9788 182.25232,444.25809 C 182.0697,444.53739 181.79935,444.75939 181.44128,444.9241 C 181.90677,445.03153 182.26843,445.25443 182.52625,445.5928 C 182.78405,445.93119 182.91296,446.35461 182.91296,446.86307 C 182.91296,447.55057 182.66231,448.13333 182.16101,448.61136 C 181.6597,449.08939 181.02592,449.3284 180.25964,449.3284 C 179.56856,449.3284 178.99475,449.12251 178.53821,448.71072 C 178.08166,448.29894 177.82117,447.76541 177.75671,447.11014 L 177.75671,447.11014 z M 183.87439,445.30545 C 183.87439,444.37447 183.97017,443.6252 184.16174,443.05765 C 184.35331,442.49011 184.63798,442.05237 185.01575,441.74442 C 185.39351,441.43648 185.86885,441.28251 186.44177,441.2825 C 186.8643,441.28251 187.2349,441.36755 187.55359,441.53763 C 187.87227,441.70772 188.13545,441.953 188.34314,442.27347 C 188.55082,442.59395 188.71374,442.98425 188.83191,443.44437 C 188.95007,443.9045 189.00915,444.52486 189.00916,445.30545 C 189.00915,446.22928 188.91426,446.97497 188.72449,447.54251 C 188.5347,448.11006 188.25093,448.5487 187.87317,448.85843 C 187.4954,449.16816 187.01827,449.32303 186.44177,449.32303 C 185.68266,449.32303 185.08646,449.05089 184.6532,448.50662 C 184.13399,447.85135 183.87439,446.78429 183.87439,445.30545 L 183.87439,445.30545 z M 184.86804,445.30545 C 184.86804,446.5981 185.01933,447.45837 185.3219,447.88626 C 185.62447,448.31416 185.99776,448.52811 186.44177,448.52811 C 186.88578,448.52811 187.25907,448.31326 187.56165,447.88358 C 187.86421,447.45389 188.0155,446.59452 188.0155,445.30545 C 188.0155,444.00923 187.86421,443.14807 187.56165,442.72195 C 187.25907,442.29585 186.8822,442.0828 186.43103,442.08279 C 185.98702,442.0828 185.63253,442.27079 185.36755,442.64676 C 185.03454,443.12658 184.86804,444.01281 184.86804,445.30545 L 184.86804,445.30545 z M 189.99744,445.30545 C 189.99744,444.37447 190.09322,443.6252 190.28479,443.05765 C 190.47636,442.49011 190.76103,442.05237 191.13879,441.74442 C 191.51656,441.43648 191.9919,441.28251 192.56482,441.2825 C 192.98734,441.28251 193.35795,441.36755 193.67664,441.53763 C 193.99532,441.70772 194.2585,441.953 194.46619,442.27347 C 194.67386,442.59395 194.83679,442.98425 194.95496,443.44437 C 195.07311,443.9045 195.1322,444.52486 195.1322,445.30545 C 195.1322,446.22928 195.03731,446.97497 194.84753,447.54251 C 194.65775,448.11006 194.37398,448.5487 193.99622,448.85843 C 193.61844,449.16816 193.14131,449.32303 192.56482,449.32303 C 191.8057,449.32303 191.20951,449.05089 190.77625,448.50662 C 190.25704,447.85135 189.99744,446.78429 189.99744,445.30545 L 189.99744,445.30545 z M 190.99109,445.30545 C 190.99109,446.5981 191.14237,447.45837 191.44495,447.88626 C 191.74752,448.31416 192.12081,448.52811 192.56482,448.52811 C 193.00883,448.52811 193.38212,448.31326 193.68469,447.88358 C 193.98726,447.45389 194.13855,446.59452 194.13855,445.30545 C 194.13855,444.00923 193.98726,443.14807 193.68469,442.72195 C 193.38212,442.29585 193.00525,442.0828 192.55408,442.08279 C 192.11006,442.0828 191.75557,442.27079 191.4906,442.64676 C 191.15759,443.12658 190.99109,444.01281 190.99109,445.30545 L 190.99109,445.30545 z M 182.8324,489.50955 L 182.8324,490.43875 L 177.62781,490.43875 C 177.62065,490.206 177.65824,489.98221 177.7406,489.76736 C 177.87309,489.41287 178.08524,489.06375 178.37708,488.72 C 178.6689,488.37625 179.09053,487.97879 179.64197,487.52762 C 180.49776,486.8258 181.07605,486.26989 181.37683,485.85989 C 181.67761,485.44991 181.828,485.06229 181.828,484.69705 C 181.828,484.31392 181.69104,483.99076 181.41711,483.72757 C 181.14318,483.46439 180.78601,483.3328 180.34558,483.33279 C 179.88008,483.3328 179.50769,483.47245 179.22839,483.75174 C 178.9491,484.03104 178.80766,484.41776 178.80408,484.9119 L 177.81042,484.80984 C 177.87846,484.06864 178.13448,483.50378 178.57849,483.11526 C 179.0225,482.72676 179.61869,482.53251 180.36707,482.5325 C 181.1226,482.53251 181.72058,482.74198 182.16101,483.16092 C 182.60144,483.57987 182.82165,484.09908 182.82166,484.71854 C 182.82165,485.03365 182.7572,485.34338 182.6283,485.64774 C 182.49938,485.9521 182.28544,486.27258 181.98645,486.60916 C 181.68745,486.94575 181.19063,487.40767 180.49597,487.9949 C 179.91589,488.48188 179.5435,488.81221 179.37878,488.98587 C 179.21407,489.15954 179.078,489.3341 178.97058,489.50955 L 182.8324,489.50955 z M 183.87439,486.55545 C 183.87439,485.62447 183.97017,484.8752 184.16174,484.30765 C 184.35331,483.74011 184.63798,483.30237 185.01575,482.99442 C 185.39351,482.68648 185.86885,482.53251 186.44177,482.5325 C 186.8643,482.53251 187.2349,482.61755 187.55359,482.78763 C 187.87227,482.95772 188.13545,483.203 188.34314,483.52347 C 188.55082,483.84395 188.71374,484.23425 188.83191,484.69437 C 188.95007,485.1545 189.00915,485.77486 189.00916,486.55545 C 189.00915,487.47928 188.91426,488.22497 188.72449,488.79251 C 188.5347,489.36006 188.25093,489.7987 187.87317,490.10843 C 187.4954,490.41816 187.01827,490.57303 186.44177,490.57303 C 185.68266,490.57303 185.08646,490.30089 184.6532,489.75662 C 184.13399,489.10135 183.87439,488.03429 183.87439,486.55545 L 183.87439,486.55545 z M 184.86804,486.55545 C 184.86804,487.8481 185.01933,488.70837 185.3219,489.13626 C 185.62447,489.56416 185.99776,489.77811 186.44177,489.77811 C 186.88578,489.77811 187.25907,489.56326 187.56165,489.13358 C 187.86421,488.70389 188.0155,487.84452 188.0155,486.55545 C 188.0155,485.25923 187.86421,484.39807 187.56165,483.97195 C 187.25907,483.54585 186.8822,483.3328 186.43103,483.33279 C 185.98702,483.3328 185.63253,483.52079 185.36755,483.89676 C 185.03454,484.37658 184.86804,485.26281 184.86804,486.55545 L 184.86804,486.55545 z M 189.99744,486.55545 C 189.99744,485.62447 190.09322,484.8752 190.28479,484.30765 C 190.47636,483.74011 190.76103,483.30237 191.13879,482.99442 C 191.51656,482.68648 191.9919,482.53251 192.56482,482.5325 C 192.98734,482.53251 193.35795,482.61755 193.67664,482.78763 C 193.99532,482.95772 194.2585,483.203 194.46619,483.52347 C 194.67386,483.84395 194.83679,484.23425 194.95496,484.69437 C 195.07311,485.1545 195.1322,485.77486 195.1322,486.55545 C 195.1322,487.47928 195.03731,488.22497 194.84753,488.79251 C 194.65775,489.36006 194.37398,489.7987 193.99622,490.10843 C 193.61844,490.41816 193.14131,490.57303 192.56482,490.57303 C 191.8057,490.57303 191.20951,490.30089 190.77625,489.75662 C 190.25704,489.10135 189.99744,488.03429 189.99744,486.55545 L 189.99744,486.55545 z M 190.99109,486.55545 C 190.99109,487.8481 191.14237,488.70837 191.44495,489.13626 C 191.74752,489.56416 192.12081,489.77811 192.56482,489.77811 C 193.00883,489.77811 193.38212,489.56326 193.68469,489.13358 C 193.98726,488.70389 194.13855,487.84452 194.13855,486.55545 C 194.13855,485.25923 193.98726,484.39807 193.68469,483.97195 C 193.38212,483.54585 193.00525,483.3328 192.55408,483.33279 C 192.11006,483.3328 191.75557,483.52079 191.4906,483.89676 C 191.15759,484.37658 190.99109,485.26281 190.99109,486.55545 L 190.99109,486.55545 z M 181.39294,531.68875 L 180.42615,531.68875 L 180.42615,525.52811 C 180.1934,525.75012 179.88814,525.97212 179.51038,526.19412 C 179.13261,526.41613 178.79333,526.58264 178.49255,526.69363 L 178.49255,525.75906 C 179.03324,525.50484 179.5059,525.1969 179.91052,524.83524 C 180.31514,524.47359 180.6016,524.12268 180.7699,523.7825 L 181.39294,523.7825 L 181.39294,531.68875 z M 183.87439,527.80545 C 183.87439,526.87447 183.97017,526.1252 184.16174,525.55765 C 184.35331,524.99011 184.63798,524.55237 185.01575,524.24442 C 185.39351,523.93648 185.86885,523.78251 186.44177,523.7825 C 186.8643,523.78251 187.2349,523.86755 187.55359,524.03763 C 187.87227,524.20772 188.13545,524.453 188.34314,524.77347 C 188.55082,525.09395 188.71374,525.48425 188.83191,525.94437 C 188.95007,526.4045 189.00915,527.02486 189.00916,527.80545 C 189.00915,528.72928 188.91426,529.47497 188.72449,530.04251 C 188.5347,530.61006 188.25093,531.0487 187.87317,531.35843 C 187.4954,531.66816 187.01827,531.82303 186.44177,531.82303 C 185.68266,531.82303 185.08646,531.55089 184.6532,531.00662 C 184.13399,530.35135 183.87439,529.28429 183.87439,527.80545 L 183.87439,527.80545 z M 184.86804,527.80545 C 184.86804,529.0981 185.01933,529.95837 185.3219,530.38626 C 185.62447,530.81416 185.99776,531.02811 186.44177,531.02811 C 186.88578,531.02811 187.25907,530.81326 187.56165,530.38358 C 187.86421,529.95389 188.0155,529.09452 188.0155,527.80545 C 188.0155,526.50923 187.86421,525.64807 187.56165,525.22195 C 187.25907,524.79585 186.8822,524.5828 186.43103,524.58279 C 185.98702,524.5828 185.63253,524.77079 185.36755,525.14676 C 185.03454,525.62658 184.86804,526.51281 184.86804,527.80545 L 184.86804,527.80545 z M 189.99744,527.80545 C 189.99744,526.87447 190.09322,526.1252 190.28479,525.55765 C 190.47636,524.99011 190.76103,524.55237 191.13879,524.24442 C 191.51656,523.93648 191.9919,523.78251 192.56482,523.7825 C 192.98734,523.78251 193.35795,523.86755 193.67664,524.03763 C 193.99532,524.20772 194.2585,524.453 194.46619,524.77347 C 194.67386,525.09395 194.83679,525.48425 194.95496,525.94437 C 195.07311,526.4045 195.1322,527.02486 195.1322,527.80545 C 195.1322,528.72928 195.03731,529.47497 194.84753,530.04251 C 194.65775,530.61006 194.37398,531.0487 193.99622,531.35843 C 193.61844,531.66816 193.14131,531.82303 192.56482,531.82303 C 191.8057,531.82303 191.20951,531.55089 190.77625,531.00662 C 190.25704,530.35135 189.99744,529.28429 189.99744,527.80545 L 189.99744,527.80545 z M 190.99109,527.80545 C 190.99109,529.0981 191.14237,529.95837 191.44495,530.38626 C 191.74752,530.81416 192.12081,531.02811 192.56482,531.02811 C 193.00883,531.02811 193.38212,530.81326 193.68469,530.38358 C 193.98726,529.95389 194.13855,529.09452 194.13855,527.80545 C 194.13855,526.50923 193.98726,525.64807 193.68469,525.22195 C 193.38212,524.79585 193.00525,524.5828 192.55408,524.58279 C 192.11006,524.5828 191.75557,524.77079 191.4906,525.14676 C 191.15759,525.62658 190.99109,526.51281 190.99109,527.80545 L 190.99109,527.80545 z M 189.99744,569.05545 C 189.99744,568.12447 190.09322,567.3752 190.28479,566.80765 C 190.47636,566.24011 190.76103,565.80237 191.13879,565.49442 C 191.51656,565.18648 191.9919,565.03251 192.56482,565.0325 C 192.98734,565.03251 193.35795,565.11755 193.67664,565.28763 C 193.99532,565.45772 194.2585,565.703 194.46619,566.02347 C 194.67386,566.34395 194.83679,566.73425 194.95496,567.19437 C 195.07311,567.6545 195.1322,568.27486 195.1322,569.05545 C 195.1322,569.97928 195.03731,570.72497 194.84753,571.29251 C 194.65775,571.86006 194.37398,572.2987 193.99622,572.60843 C 193.61844,572.91816 193.14131,573.07303 192.56482,573.07303 C 191.8057,573.07303 191.20951,572.80089 190.77625,572.25662 C 190.25704,571.60135 189.99744,570.53429 189.99744,569.05545 L 189.99744,569.05545 z M 190.99109,569.05545 C 190.99109,570.3481 191.14237,571.20837 191.44495,571.63626 C 191.74752,572.06416 192.12081,572.27811 192.56482,572.27811 C 193.00883,572.27811 193.38212,572.06326 193.68469,571.63358 C 193.98726,571.20389 194.13855,570.34452 194.13855,569.05545 C 194.13855,567.75923 193.98726,566.89807 193.68469,566.47195 C 193.38212,566.04585 193.00525,565.8328 192.55408,565.83279 C 192.11006,565.8328 191.75557,566.02079 191.4906,566.39676 C 191.15759,566.87658 190.99109,567.76281 190.99109,569.05545 L 190.99109,569.05545 z"
       id="text3246" />
    <path
       transform="matrix(0,-1,1,0,0,0)"
       style="font-size:16px;font-style:normal;font-weight:normal;fill:#000000;fill-opacity:1;stroke:none;stroke-width:1px;stroke-linecap:butt;stroke-linejoin:miter;stroke-opacity:1;font-family:Bitstream Vera Sans"
       d="M -537.27454,170.46471 L -537.27454,160.44322 L -535.94836,160.44322 L -535.94836,164.55846 L -530.73938,164.55846 L -530.73938,160.44322 L -529.41321,160.44322 L -529.41321,170.46471 L -530.73938,170.46471 L -530.73938,165.74107 L -535.94836,165.74107 L -535.94836,170.46471 L -537.27454,170.46471 z M -522.38586,168.12682 L -521.11438,168.28404 C -521.31491,169.02688 -521.68633,169.60338 -522.22864,170.01353 C -522.77096,170.42369 -523.46367,170.62877 -524.30676,170.62877 C -525.36861,170.62877 -526.21057,170.30178 -526.83264,169.64781 C -527.45471,168.99384 -527.76575,168.07669 -527.76575,166.89635 C -527.76575,165.675 -527.45129,164.72708 -526.82239,164.0526 C -526.19348,163.37812 -525.37773,163.04089 -524.37512,163.04088 C -523.40442,163.04089 -522.61146,163.37129 -521.99622,164.03209 C -521.38099,164.6929 -521.07337,165.62259 -521.07336,166.82115 C -521.07337,166.89407 -521.07565,167.00345 -521.0802,167.14928 L -526.49426,167.14928 C -526.44869,167.94681 -526.22311,168.55748 -525.8175,168.98131 C -525.41191,169.40514 -524.90605,169.61705 -524.29993,169.61705 C -523.84876,169.61705 -523.46367,169.49856 -523.14465,169.26158 C -522.82565,169.0246 -522.57272,168.64635 -522.38586,168.12682 L -522.38586,168.12682 z M -526.4259,166.13756 L -522.37219,166.13756 C -522.42689,165.52689 -522.58183,165.06888 -522.83704,164.76353 C -523.22897,164.28958 -523.73711,164.0526 -524.36145,164.0526 C -524.92656,164.0526 -525.40165,164.24173 -525.78674,164.61998 C -526.17184,164.99824 -526.38489,165.5041 -526.4259,166.13756 L -526.4259,166.13756 z M -519.55579,161.85826 L -519.55579,160.44322 L -518.32532,160.44322 L -518.32532,161.85826 L -519.55579,161.85826 z M -519.55579,170.46471 L -519.55579,163.20494 L -518.32532,163.20494 L -518.32532,170.46471 L -519.55579,170.46471 z M -516.67102,171.06627 L -515.47473,171.244 C -515.4246,171.61314 -515.28561,171.88202 -515.05774,172.05064 C -514.7524,172.27851 -514.33541,172.39244 -513.80676,172.39244 C -513.23711,172.39244 -512.79733,172.27851 -512.48743,172.05064 C -512.17754,171.82278 -511.9679,171.50377 -511.85852,171.09361 C -511.79472,170.84296 -511.7651,170.31659 -511.76965,169.51451 C -512.30742,170.14797 -512.97734,170.46471 -513.77942,170.46471 C -514.77747,170.46471 -515.54993,170.10468 -516.0968,169.38463 C -516.64368,168.66458 -516.91711,167.80097 -516.91711,166.79381 C -516.91711,166.1011 -516.79179,165.46194 -516.54114,164.87633 C -516.29049,164.29072 -515.92704,163.83841 -515.45081,163.51939 C -514.97457,163.20039 -514.41516,163.04089 -513.77258,163.04088 C -512.91582,163.04089 -512.20944,163.38724 -511.65344,164.07994 L -511.65344,163.20494 L -510.51868,163.20494 L -510.51868,169.48033 C -510.51868,170.61054 -510.63376,171.41148 -510.86389,171.88316 C -511.09404,172.35484 -511.45862,172.7274 -511.95764,173.00084 C -512.45667,173.27427 -513.07076,173.41099 -513.79993,173.411 C -514.66581,173.41099 -515.36536,173.21617 -515.89856,172.82652 C -516.43176,172.43687 -516.68925,171.85012 -516.67102,171.06627 L -516.67102,171.06627 z M -515.65247,166.70494 C -515.65247,167.65742 -515.46334,168.3524 -515.08508,168.7899 C -514.70683,169.2274 -514.23287,169.44615 -513.66321,169.44615 C -513.09811,169.44615 -512.62415,169.22854 -512.24133,168.79332 C -511.85853,168.3581 -511.66712,167.67565 -511.66711,166.74596 C -511.66712,165.85729 -511.86422,165.18737 -512.25842,164.73619 C -512.65263,164.28503 -513.12773,164.05944 -513.68372,164.05943 C -514.23059,164.05944 -514.69544,164.28161 -515.07825,164.72594 C -515.46106,165.17028 -515.65247,165.82995 -515.65247,166.70494 L -515.65247,166.70494 z M -508.65247,170.46471 L -508.65247,160.44322 L -507.422,160.44322 L -507.422,164.03893 C -506.84778,163.37357 -506.12317,163.04089 -505.24817,163.04088 C -504.71041,163.04089 -504.24329,163.14684 -503.8468,163.35875 C -503.45032,163.57067 -503.16663,163.86348 -502.99573,164.23717 C -502.82484,164.61087 -502.73939,165.15319 -502.73938,165.86412 L -502.73938,170.46471 L -503.96985,170.46471 L -503.96985,165.86412 C -503.96985,165.24889 -504.10315,164.80114 -504.36975,164.52086 C -504.63636,164.24059 -505.01347,164.10045 -505.5011,164.10045 C -505.86569,164.10045 -506.20862,164.19502 -506.52991,164.38414 C -506.8512,164.57327 -507.0802,164.82962 -507.21692,165.15318 C -507.35364,165.47676 -507.422,165.92337 -507.422,166.49303 L -507.422,170.46471 L -508.65247,170.46471 z M -498.17297,169.36412 L -497.99524,170.45103 C -498.3416,170.52395 -498.65149,170.56041 -498.92493,170.56041 C -499.37154,170.56041 -499.7179,170.48977 -499.96399,170.3485 C -500.21008,170.20722 -500.38326,170.02151 -500.48352,169.79137 C -500.58378,169.56122 -500.63391,169.07701 -500.63391,168.33873 L -500.63391,164.16197 L -501.53625,164.16197 L -501.53625,163.20494 L -500.63391,163.20494 L -500.63391,161.40709 L -499.41028,160.66881 L -499.41028,163.20494 L -498.17297,163.20494 L -498.17297,164.16197 L -499.41028,164.16197 L -499.41028,168.40709 C -499.41028,168.758 -499.38863,168.98359 -499.34534,169.08385 C -499.30205,169.18411 -499.23141,169.26386 -499.13342,169.3231 C -499.03544,169.38235 -498.89531,169.41197 -498.71301,169.41197 C -498.5763,169.41197 -498.39628,169.39602 -498.17297,169.36412 L -498.17297,169.36412 z M -490.74231,173.411 C -491.42135,172.55422 -491.99557,171.55162 -492.46497,170.40318 C -492.93437,169.25475 -493.16907,168.06529 -493.16907,166.83482 C -493.16907,165.75019 -492.99361,164.71113 -492.6427,163.71764 C -492.23255,162.56465 -491.59908,161.41621 -490.74231,160.27232 L -489.86047,160.27232 C -490.41191,161.22025 -490.77649,161.89701 -490.95422,162.3026 C -491.23222,162.93151 -491.45097,163.58776 -491.61047,164.27135 C -491.80644,165.12357 -491.90442,165.98034 -491.90442,166.84166 C -491.90442,169.03372 -491.22311,171.22349 -489.86047,173.411 L -490.74231,173.411 z M -488.31555,170.46471 L -488.31555,160.44322 L -486.98938,160.44322 L -486.98938,165.41295 L -482.01282,160.44322 L -480.21497,160.44322 L -484.41907,164.50377 L -480.0304,170.46471 L -481.7804,170.46471 L -485.34875,165.39244 L -486.98938,166.99205 L -486.98938,170.46471 L -488.31555,170.46471 z M -479.06653,170.46471 L -479.06653,163.20494 L -477.96594,163.20494 L -477.96594,164.2235 C -477.73808,163.86803 -477.43502,163.58206 -477.05676,163.36559 C -476.67851,163.14912 -476.24785,163.04089 -475.76477,163.04088 C -475.22701,163.04089 -474.7861,163.15254 -474.44202,163.37584 C -474.09795,163.59915 -473.85527,163.91133 -473.71399,164.31236 C -473.13978,163.46471 -472.39238,163.04089 -471.4718,163.04088 C -470.75176,163.04089 -470.19805,163.24027 -469.81067,163.63902 C -469.42331,164.03779 -469.22963,164.65189 -469.22961,165.48131 L -469.22961,170.46471 L -470.45325,170.46471 L -470.45325,165.89146 C -470.45326,165.39928 -470.49313,165.04495 -470.57288,164.82848 C -470.65264,164.61201 -470.79733,164.43769 -471.00696,164.30553 C -471.2166,164.17337 -471.4627,164.10729 -471.74524,164.10728 C -472.25566,164.10729 -472.67949,164.27705 -473.01672,164.61656 C -473.35397,164.95609 -473.52259,165.49954 -473.52258,166.24693 L -473.52258,170.46471 L -474.75305,170.46471 L -474.75305,165.74791 C -474.75306,165.20104 -474.85332,164.79088 -475.05383,164.51744 C -475.25436,164.24401 -475.58248,164.10729 -476.03821,164.10728 C -476.38457,164.10729 -476.70472,164.19844 -476.99866,164.38072 C -477.29261,164.56302 -477.50566,164.82962 -477.63782,165.18053 C -477.76998,165.53144 -477.83606,166.0373 -477.83606,166.6981 L -477.83606,170.46471 L -479.06653,170.46471 z M -466.58411,173.411 L -467.46594,173.411 C -466.10331,171.22349 -465.422,169.03372 -465.422,166.84166 C -465.422,165.98489 -465.51998,165.13496 -465.71594,164.29185 C -465.87089,163.60827 -466.08736,162.95202 -466.36536,162.3231 C -466.54309,161.91296 -466.90995,161.22936 -467.46594,160.27232 L -466.58411,160.27232 C -465.72734,161.41621 -465.09388,162.56465 -464.68372,163.71764 C -464.33281,164.71113 -464.15735,165.75019 -464.15735,166.83482 C -464.15735,168.06529 -464.39319,169.25475 -464.86487,170.40318 C -465.33655,171.55162 -465.90963,172.55422 -466.58411,173.411 L -466.58411,173.411 z"
       id="text3270" />
    <path
       style="font-size:16px;font-style:normal;font-weight:normal;fill:#000000;fill-opacity:1;stroke:none;stroke-width:1px;stroke-linecap:butt;stroke-linejoin:miter;stroke-opacity:1;font-family:Bitstream Vera Sans"
       d="M 273.28104,600.9162 L 273.28104,590.89471 L 274.64139,590.89471 L 279.90506,598.76288 L 279.90506,590.89471 L 281.17654,590.89471 L 281.17654,600.9162 L 279.81619,600.9162 L 274.55252,593.0412 L 274.55252,600.9162 L 273.28104,600.9162 z M 283.26151,592.30975 L 283.26151,590.89471 L 284.49197,590.89471 L 284.49197,592.30975 L 283.26151,592.30975 z M 283.26151,600.9162 L 283.26151,593.65643 L 284.49197,593.65643 L 284.49197,600.9162 L 283.26151,600.9162 z M 286.14627,601.51776 L 287.34256,601.6955 C 287.39269,602.06464 287.53169,602.33352 287.75955,602.50214 C 288.06489,602.73 288.48188,602.84393 289.01053,602.84393 C 289.58019,602.84393 290.01996,602.73 290.32986,602.50214 C 290.63976,602.27427 290.84939,601.95526 290.95877,601.5451 C 291.02257,601.29445 291.05219,600.76809 291.04764,599.966 C 290.50987,600.59947 289.83995,600.9162 289.03787,600.9162 C 288.03982,600.9162 287.26736,600.55617 286.72049,599.83612 C 286.17361,599.11607 285.90018,598.25246 285.90018,597.2453 C 285.90018,596.5526 286.0255,595.91344 286.27615,595.32782 C 286.5268,594.74221 286.89025,594.2899 287.36649,593.97089 C 287.84272,593.65188 288.40213,593.49238 289.04471,593.49237 C 289.90147,593.49238 290.60785,593.83873 291.16385,594.53143 L 291.16385,593.65643 L 292.29861,593.65643 L 292.29861,599.93182 C 292.29861,601.06203 292.18354,601.86298 291.9534,602.33466 C 291.72325,602.80633 291.35867,603.17889 290.85965,603.45233 C 290.36062,603.72577 289.74653,603.86248 289.01736,603.86249 C 288.15148,603.86248 287.45193,603.66766 286.91873,603.27802 C 286.38553,602.88836 286.12804,602.30161 286.14627,601.51776 L 286.14627,601.51776 z M 287.16483,597.15643 C 287.16482,598.10891 287.35395,598.8039 287.73221,599.24139 C 288.11046,599.6789 288.58442,599.89765 289.15408,599.89764 C 289.71918,599.89765 290.19314,599.68003 290.57596,599.24481 C 290.95877,598.80959 291.15017,598.12714 291.15018,597.19745 C 291.15017,596.30878 290.95307,595.63886 290.55887,595.18768 C 290.16466,594.73652 289.68956,594.51093 289.13358,594.51093 C 288.5867,594.51093 288.12185,594.7331 287.73904,595.17743 C 287.35623,595.62177 287.16482,596.28144 287.16483,597.15643 L 287.16483,597.15643 z M 294.16483,600.9162 L 294.16483,590.89471 L 295.39529,590.89471 L 295.39529,594.49042 C 295.96951,593.82506 296.69412,593.49238 297.56912,593.49237 C 298.10688,593.49238 298.574,593.59833 298.97049,593.81024 C 299.36697,594.02216 299.65066,594.31497 299.82156,594.68866 C 299.99246,595.06236 300.0779,595.60468 300.07791,596.31561 L 300.07791,600.9162 L 298.84744,600.9162 L 298.84744,596.31561 C 298.84744,595.70038 298.71414,595.25263 298.44754,594.97235 C 298.18093,594.69208 297.80382,594.55195 297.31619,594.55194 C 296.95161,594.55195 296.60867,594.64651 296.28738,594.83563 C 295.96609,595.02477 295.73709,595.28111 295.60037,595.60468 C 295.46365,595.92825 295.39529,596.37486 295.39529,596.94452 L 295.39529,600.9162 L 294.16483,600.9162 z M 304.64432,599.81561 L 304.82205,600.90253 C 304.47569,600.97544 304.1658,601.0119 303.89236,601.0119 C 303.44575,601.0119 303.09939,600.94126 302.8533,600.79999 C 302.60721,600.65871 302.43403,600.473 302.33377,600.24286 C 302.23351,600.01272 302.18338,599.5285 302.18338,598.79022 L 302.18338,594.61346 L 301.28104,594.61346 L 301.28104,593.65643 L 302.18338,593.65643 L 302.18338,591.85858 L 303.40701,591.1203 L 303.40701,593.65643 L 304.64432,593.65643 L 304.64432,594.61346 L 303.40701,594.61346 L 303.40701,598.85858 C 303.40701,599.20949 303.42866,599.43508 303.47195,599.53534 C 303.51525,599.6356 303.58588,599.71535 303.68387,599.7746 C 303.78185,599.83384 303.92198,599.86347 304.10428,599.86346 C 304.24099,599.86347 304.42101,599.84751 304.64432,599.81561 L 304.64432,599.81561 z"
       id="text3280" />
    <path
       style="font-size:14px;font-style:normal;font-weight:normal;fill:#000000;fill-opacity:1;stroke:none;stroke-width:1px;stroke-linecap:butt;stroke-linejoin:miter;stroke-opacity:1;font-family:Bitstream Vera Sans"
       d="M 428.64136,600.9162 L 428.64136,590.89471 L 432.09351,590.89471 C 432.8728,590.89472 433.46752,590.94258 433.87769,591.03827 C 434.4519,591.17044 434.94181,591.4097 435.34741,591.75604 C 435.87605,592.20267 436.27139,592.77347 436.53345,593.46844 C 436.79548,594.16344 436.9265,594.95755 436.92651,595.85077 C 436.9265,596.61184 436.83764,597.28632 436.65991,597.87421 C 436.48217,598.4621 436.2543,598.94859 435.97632,599.33368 C 435.69832,599.71877 435.39412,600.02183 435.06372,600.24286 C 434.73331,600.46389 434.33455,600.63137 433.86743,600.7453 C 433.4003,600.85923 432.86368,600.9162 432.25757,600.9162 L 428.64136,600.9162 z M 429.96753,599.73358 L 432.10718,599.73358 C 432.76798,599.73358 433.28637,599.67206 433.66235,599.54901 C 434.03832,599.42597 434.33797,599.25279 434.56128,599.02948 C 434.87573,598.71503 435.12068,598.29234 435.29614,597.76141 C 435.47159,597.23049 435.55932,596.58678 435.55933,595.83026 C 435.55932,594.78209 435.38728,593.97659 435.04321,593.41376 C 434.69913,592.85094 434.281,592.47382 433.78882,592.28241 C 433.43334,592.1457 432.8614,592.07734 432.073,592.07733 L 429.96753,592.07733 L 429.96753,599.73358 z M 443.33862,600.02069 C 442.88289,600.40806 442.44425,600.6815 442.02271,600.841 C 441.60115,601.00051 441.14884,601.08026 440.66577,601.08026 C 439.86824,601.08026 439.25529,600.88544 438.8269,600.49579 C 438.39852,600.10614 438.18433,599.60826 438.18433,599.00214 C 438.18433,598.64667 438.26522,598.32196 438.427,598.02802 C 438.58878,597.73407 438.8007,597.49823 439.06274,597.3205 C 439.32479,597.14277 439.61987,597.00833 439.948,596.91718 C 440.18953,596.85338 440.55411,596.79185 441.04175,596.7326 C 442.03523,596.61412 442.76668,596.47284 443.23608,596.30878 C 443.24064,596.14016 443.24291,596.03307 443.24292,595.98749 C 443.24291,595.48619 443.1267,595.133 442.89429,594.92792 C 442.57983,594.64993 442.11271,594.51093 441.49292,594.51093 C 440.91414,594.51093 440.48689,594.61233 440.21118,594.81512 C 439.93546,595.01793 439.73152,595.37682 439.59937,595.89178 L 438.39624,595.72772 C 438.50561,595.21275 438.68563,594.7969 438.93628,594.48016 C 439.18693,594.16344 439.54923,593.91962 440.02319,593.74872 C 440.49715,593.57783 441.0463,593.49238 441.67065,593.49237 C 442.29044,593.49238 442.79402,593.56529 443.1814,593.71112 C 443.56876,593.85696 443.85359,594.04039 444.03589,594.26141 C 444.21817,594.48245 444.34578,594.76158 444.4187,595.09882 C 444.45971,595.30846 444.48022,595.68671 444.48022,596.23358 L 444.48022,597.87421 C 444.48022,599.01809 444.50642,599.74156 444.55884,600.04462 C 444.61124,600.34768 444.71492,600.6382 444.86987,600.9162 L 443.58472,600.9162 C 443.45711,600.66099 443.37508,600.36249 443.33862,600.02069 L 443.33862,600.02069 z M 443.23608,597.27264 C 442.78946,597.45494 442.11954,597.60989 441.22632,597.73749 C 440.72046,597.81041 440.36271,597.89244 440.15308,597.98358 C 439.94344,598.07473 439.78165,598.20803 439.66772,598.38348 C 439.55379,598.55894 439.49682,598.75377 439.49683,598.96796 C 439.49682,599.29608 439.62101,599.56952 439.86938,599.78827 C 440.11775,600.00702 440.4812,600.11639 440.95972,600.11639 C 441.43367,600.11639 441.85522,600.01272 442.22437,599.80536 C 442.5935,599.598 442.86466,599.31431 443.03784,598.95428 C 443.17,598.67629 443.23608,598.26614 443.23608,597.72382 L 443.23608,597.27264 z M 446.3396,603.7121 L 446.20288,602.55682 C 446.47176,602.62974 446.70646,602.6662 446.90698,602.6662 C 447.18042,602.6662 447.39917,602.62062 447.56323,602.52948 C 447.72729,602.43833 447.86173,602.31073 447.96655,602.14667 C 448.04402,602.02362 448.16935,601.71828 448.34253,601.23065 C 448.36531,601.16229 448.40177,601.06203 448.4519,600.92987 L 445.69702,593.65643 L 447.02319,593.65643 L 448.53394,597.86053 C 448.7299,598.39374 448.90535,598.95429 449.0603,599.54218 C 449.20158,598.97707 449.37019,598.42564 449.56616,597.88788 L 451.11792,593.65643 L 452.34839,593.65643 L 449.58667,601.03925 C 449.29044,601.83677 449.0603,602.38592 448.89624,602.68671 C 448.67749,603.0923 448.42684,603.38967 448.14429,603.5788 C 447.86173,603.76792 447.52449,603.86248 447.13257,603.86249 C 446.89559,603.86248 446.63127,603.81235 446.3396,603.7121 L 446.3396,603.7121 z"
       id="text3284" />
    <path
       style="fill:none;fill-opacity:1;stroke:#000000;stroke-width:1.5;stroke-miterlimit:4;stroke-dasharray:none;stroke-dashoffset:0;stroke-opacity:1"
       d="M 374.9586,419.07245 L 374.9586,560.8537 C 427.37775,561.44017 477.34569,566.73164 522.9586,575.9787 L 522.9586,438.25995 C 477.33866,426.50411 427.36867,419.77984 374.9586,419.07245 z"
       id="path2413" />
    <path
       style="fill:none;fill-opacity:1;stroke:#000000;stroke-width:1.5;stroke-miterlimit:4;stroke-dasharray:none;stroke-dashoffset:0;stroke-opacity:1"
       d="M 374.9586,419.07245 C 371.92599,419.03152 368.91364,418.94745 365.86485,418.94745 C 307.38998,418.94745 251.83372,426.51959 201.7086,440.13495 L 201.7086,577.25995 C 251.70475,566.65535 307.08547,560.7287 365.36485,560.7287 C 368.58297,560.7287 371.75858,560.8179 374.9586,560.8537 L 374.9586,419.07245 z"
       id="path3240" />
    <path
       style="font-size:14px;font-style:normal;font-weight:normal;fill:#000000;fill-opacity:1;stroke:none;stroke-width:1px;stroke-linecap:butt;stroke-linejoin:miter;stroke-opacity:1;font-family:Bitstream Vera Sans"
       d="M 289.88034,464.67685 L 289.88034,456.08701 L 295.67526,456.08701 L 295.67526,457.10068 L 291.01706,457.10068 L 291.01706,459.76083 L 295.04831,459.76083 L 295.04831,460.77451 L 291.01706,460.77451 L 291.01706,464.67685 L 289.88034,464.67685 z"
       id="text2416" />
    <path
       style="font-size:12px;font-style:normal;font-weight:normal;fill:#000000;fill-opacity:1;stroke:none;stroke-width:1px;stroke-linecap:butt;stroke-linejoin:miter;stroke-opacity:1;font-family:Bitstream Vera Sans"
       d="M 452.00983,475.28345 L 452.00983,466.6936 L 457.80475,466.6936 L 457.80475,467.70728 L 453.14655,467.70728 L 453.14655,470.36743 L 457.1778,470.36743 L 457.1778,471.3811 L 453.14655,471.3811 L 453.14655,475.28345 L 452.00983,475.28345 z M 462.83209,475.28345 L 461.7774,475.28345 L 461.7774,468.56274 C 461.5235,468.80494 461.19049,469.04713 460.77838,469.28931 C 460.36627,469.5315 459.99615,469.71314 459.66803,469.83423 L 459.66803,468.8147 C 460.25787,468.53736 460.7735,468.20142 461.2149,467.80688 C 461.65631,467.41236 461.96881,467.02955 462.1524,466.65845 L 462.83209,466.65845 L 462.83209,475.28345 z"
       id="text2420" />
    <path
       style="font-size:12px;font-style:normal;font-weight:normal;fill:#000000;fill-opacity:1;stroke:none;stroke-width:1px;stroke-linecap:butt;stroke-linejoin:miter;stroke-opacity:1;font-family:Bitstream Vera Sans"
       d="M 452.00983,454.57532 L 452.00983,445.98547 L 457.80475,445.98547 L 457.80475,446.99915 L 453.14655,446.99915 L 453.14655,449.6593 L 457.1778,449.6593 L 457.1778,450.67297 L 453.14655,450.67297 L 453.14655,454.57532 L 452.00983,454.57532 z M 464.4024,453.56165 L 464.4024,454.57532 L 458.72467,454.57532 C 458.71686,454.32141 458.75787,454.07727 458.84772,453.8429 C 458.99225,453.45618 459.22369,453.07532 459.54205,452.70032 C 459.86041,452.32532 460.32037,451.89173 460.92194,451.39954 C 461.85553,450.63392 462.48639,450.02747 462.81451,449.5802 C 463.14263,449.13294 463.3067,448.71009 463.3067,448.31165 C 463.3067,447.89368 463.15728,447.54114 462.85846,447.25403 C 462.55963,446.96693 462.16998,446.82337 461.68951,446.82336 C 461.1817,446.82337 460.77545,446.97572 460.47076,447.2804 C 460.16607,447.58509 460.01178,448.00696 460.00787,448.54602 L 458.92389,448.43469 C 458.99811,447.62611 459.2774,447.0099 459.76178,446.58606 C 460.24615,446.16224 460.89654,445.95033 461.71295,445.95032 C 462.53717,445.95033 463.18951,446.17884 463.66998,446.63586 C 464.15045,447.0929 464.39068,447.65931 464.39069,448.33508 C 464.39068,448.67884 464.32037,449.01673 464.17975,449.34875 C 464.03912,449.68079 463.80572,450.0304 463.47955,450.39758 C 463.15338,450.76477 462.61138,451.26868 461.85358,451.9093 C 461.22076,452.44055 460.81451,452.80091 460.63483,452.99036 C 460.45514,453.17981 460.3067,453.37024 460.18951,453.56165 L 464.4024,453.56165 z"
       id="text2424" />
    <path
       style="font-size:12px;font-style:normal;font-weight:normal;fill:#000000;fill-opacity:1;stroke:none;stroke-width:1px;stroke-linecap:butt;stroke-linejoin:miter;stroke-opacity:1;font-family:Bitstream Vera Sans"
       d="M 290.35028,512.65912 L 290.35028,504.06927 L 296.56122,504.06927 L 296.56122,505.08295 L 291.487,505.08295 L 291.487,507.71381 L 296.23895,507.71381 L 296.23895,508.72162 L 291.487,508.72162 L 291.487,511.64545 L 296.76044,511.64545 L 296.76044,512.65912 L 290.35028,512.65912 z"
       id="text2428" />
    <path
       style="font-size:12px;font-style:normal;font-weight:normal;fill:#000000;fill-opacity:1;stroke:none;stroke-width:1px;stroke-linecap:butt;stroke-linejoin:miter;stroke-opacity:1;font-family:Bitstream Vera Sans"
       d="M 454.50006,517.20477 L 454.50006,508.61493 L 460.711,508.61493 L 460.711,509.6286 L 455.63678,509.6286 L 455.63678,512.25946 L 460.38873,512.25946 L 460.38873,513.26727 L 455.63678,513.26727 L 455.63678,516.1911 L 460.91022,516.1911 L 460.91022,517.20477 L 454.50006,517.20477 z"
       id="text2432" />
    <path
       style="font-size:12px;font-style:normal;font-weight:normal;fill:#000000;fill-opacity:1;stroke:none;stroke-width:1px;stroke-linecap:butt;stroke-linejoin:miter;stroke-opacity:1;font-family:Bitstream Vera Sans"
       d="M 454.98169,538.41797 L 454.98169,529.82812 L 457.94067,529.82812 C 458.60864,529.82813 459.1184,529.86915 459.46997,529.95117 C 459.96215,530.06446 460.38207,530.26954 460.72974,530.56641 C 461.18285,530.94923 461.52172,531.43848 461.74634,532.03418 C 461.97094,532.62989 462.08324,533.31055 462.08325,534.07617 C 462.08324,534.72852 462.00707,535.30664 461.85474,535.81055 C 461.70238,536.31446 461.50707,536.73145 461.2688,537.06152 C 461.03051,537.3916 460.76977,537.65137 460.48657,537.84082 C 460.20336,538.03027 459.86157,538.17383 459.46118,538.27148 C 459.06079,538.36914 458.60083,538.41797 458.0813,538.41797 L 454.98169,538.41797 z M 456.11841,537.4043 L 457.95239,537.4043 C 458.51879,537.4043 458.96313,537.35156 459.2854,537.24609 C 459.60766,537.14063 459.8645,536.99219 460.05591,536.80078 C 460.32543,536.53125 460.53539,536.16895 460.68579,535.71387 C 460.83617,535.25879 460.91137,534.70703 460.91138,534.05859 C 460.91137,533.16016 460.76391,532.46973 460.46899,531.9873 C 460.17407,531.50489 459.81567,531.18165 459.3938,531.01758 C 459.08911,530.9004 458.59887,530.8418 457.9231,530.8418 L 456.11841,530.8418 L 456.11841,537.4043 z"
       id="text2436" />
  </g>
</svg>
